<?xml version="1.0" standalone="no"?>
<!DOCTYPE svg PUBLIC "-//W3C//DTD SVG 20010904//EN"
 "http://www.w3.org/TR/2001/REC-SVG-20010904/DTD/svg10.dtd">
<svg version="1.0" xmlns="http://www.w3.org/2000/svg"
 width="700.000000pt" height="700.000000pt" viewBox="0 0 700.000000 700.000000"
 preserveAspectRatio="xMidYMid meet">
<metadata>
Created by potrace 1.14, written by Peter Selinger 2001-2017
</metadata>
<g transform="translate(0.000000,700.000000) scale(0.100000,-0.100000)"
fill="#000000" stroke="none">
<path d="M4550 5181 c-89 -18 -105 -35 -362 -381 -96 -129 -579 -775 -1073
-1434 -494 -660 -907 -1220 -918 -1244 -53 -120 34 -278 167 -303 58 -11 135
6 176 39 29 23 138 165 515 667 11 15 34 45 51 68 18 23 228 305 469 627 241
322 446 596 456 610 11 14 145 194 299 400 155 206 286 382 293 390 67 84 163
220 177 253 13 29 18 60 16 99 -7 135 -134 235 -266 209z"/>
<path d="M1607 5135 c-26 -7 -62 -25 -79 -41 -17 -16 -359 -355 -759 -754
-758 -755 -768 -766 -769 -848 0 -18 5 -54 11 -80 11 -44 54 -89 763 -800 505
-506 764 -759 792 -772 25 -13 61 -20 95 -20 169 1 279 178 202 326 -10 19
-310 327 -666 684 l-648 648 654 654 c393 393 660 668 670 689 26 57 29 106
12 165 -34 118 -152 182 -278 149z"/>
<path d="M5280 5144 c-80 -30 -139 -85 -160 -149 -18 -55 -8 -144 23 -191 14
-21 314 -327 667 -678 l642 -639 -655 -656 c-360 -361 -663 -671 -672 -690
-25 -50 -23 -136 5 -195 52 -110 196 -157 305 -100 19 11 371 354 782 764 578
577 750 754 766 789 23 52 19 135 -8 189 -23 44 -1494 1515 -1537 1537 -34 17
-132 29 -158 19z"/>
</g>
</svg>
